<svg width="46" height="19" viewBox="0 0 46 19" fill="none" xmlns="http://www.w3.org/2000/svg">
<g clip-path="url(#clip0_109_2755)">
<path fill-rule="evenodd" clip-rule="evenodd" d="M24.2687 15.1066C24.4506 15.1066 24.5786 14.9785 24.5786 14.7965V5.68265H27.6712C27.8531 5.68265 27.9811 5.55457 27.9811 5.37256V4.11873C27.9811 3.93673 27.8531 3.80865 27.6712 3.80865H19.4378C19.2559 3.80865 19.1279 3.93673 19.1279 4.11873V5.37256C19.1279 5.55457 19.2559 5.68265 19.4378 5.68265H22.5304V14.7965C22.5304 14.9785 22.6584 15.1066 22.8403 15.1066H24.2687ZM38.3638 14.7156C38.5457 14.9111 38.4379 15.1133 38.2088 15.1133H36.4166C36.1741 15.1133 36.0461 15.0594 35.8911 14.8706L34.8198 13.6842C34.0989 14.6482 33.095 15.3627 31.4308 15.3627C29.3691 15.3627 27.7453 14.1224 27.7453 11.9855C27.7453 10.3474 28.6212 9.47109 29.9485 8.73632C29.3017 7.98807 29.0053 7.19263 29.0053 6.50505C29.0053 4.75239 30.2315 3.55249 32.0844 3.55249C33.9372 3.55249 35.1365 4.6715 35.1365 6.32304C35.1365 7.73865 34.1191 8.52735 33.0478 9.12056L34.6312 10.8328L35.5205 9.2756C35.6351 9.09359 35.7631 9.01944 35.9854 9.01944H37.3532C37.5823 9.01944 37.7035 9.17449 37.5688 9.41716L35.9854 12.127L38.3706 14.7156H38.3638ZM32.1046 5.29841C31.3702 5.29841 30.9457 5.76354 30.9457 6.38371C30.9457 6.86232 31.2017 7.28701 31.7812 7.90718C32.7851 7.32745 33.2095 6.97692 33.2095 6.35001C33.2095 5.77028 32.8457 5.29167 32.1046 5.29167V5.29841ZM31.4712 13.5831C32.3741 13.5831 32.9805 13.1449 33.479 12.3967L31.1882 9.93622C30.3124 10.4283 29.7464 10.9271 29.7464 11.9181C29.7464 12.909 30.5347 13.5831 31.4712 13.5831ZM20.5024 14.7426C20.5697 14.9246 20.4619 15.1133 20.2598 15.1133H18.791C18.5821 15.1133 18.4541 15.0122 18.38 14.8167L17.5446 12.4169H12.9832L12.1477 14.8167C12.0803 15.0122 11.9523 15.1133 11.7367 15.1133H10.3555C10.1736 15.1133 10.0456 14.9313 10.113 14.7426L13.9399 4.08503C14.014 3.88954 14.1353 3.80191 14.3509 3.80191H16.2442C16.4531 3.80191 16.5945 3.88954 16.6687 4.08503L20.4956 14.7426H20.5024ZM16.8977 10.5564L15.274 5.89162L13.6367 10.5564H16.8977ZM40.594 15.1066C40.4121 15.1066 40.284 14.9785 40.284 14.7965V5.68265H37.1915C37.0096 5.68265 36.8815 5.55457 36.8815 5.37256V4.11873C36.8815 3.93673 37.0096 3.80865 37.1915 3.80865H45.4249C45.6068 3.80865 45.7348 3.93673 45.7348 4.11873V5.37256C45.7348 5.55457 45.6068 5.68265 45.4249 5.68265H42.3323V14.7965C42.3323 14.9785 42.2043 15.1066 42.0223 15.1066H40.594Z" fill="black" fill-opacity="0.5"/>
<path fill-rule="evenodd" clip-rule="evenodd" d="M2.25681 1.32798C0.841912 0.478611 -0.795331 0 -2.56733 0C-4.33932 0 -6.0372 0.498834 -7.45884 1.36842C-7.88331 1.63132 -8.12587 1.84029 -8.12587 2.10993C-8.12587 2.90537 -6.26628 3.76148 -2.97158 3.76148C0.323114 3.76148 2.82277 2.82448 2.82277 1.92119C2.82277 1.70547 2.63412 1.55717 2.25681 1.32798ZM3.66498 2.37957C3.7054 2.44024 3.72562 2.50765 3.72562 2.59529C3.72562 3.64688 0.518506 5.50066 -4.58188 5.50066C-8.33473 5.50066 -9.03545 4.10527 -9.03545 3.2222C-9.03545 2.90537 -8.91417 2.5818 -8.64466 2.25149C-8.63119 2.23127 -8.64466 2.22453 -8.65814 2.23801C-9.14325 2.64921 -9.59467 3.11434 -9.98545 3.61992C-10.1741 3.85585 -10.2886 4.06482 -10.2886 4.1929C-10.2886 6.02646 -5.69358 7.36118 -1.39498 7.36118C3.18661 7.36118 5.22811 5.86467 5.22811 4.55018C5.22811 4.07831 5.04619 3.80867 4.57456 3.27613C4.27136 2.93234 3.98165 2.64921 3.67845 2.37283C3.66498 2.35935 3.6515 2.37283 3.66498 2.38631M-11.0904 5.38606C-11.3667 5.93208 -11.6766 6.86234 -11.7642 7.34095C-11.8046 7.54318 -11.7844 7.6443 -11.717 7.79934C-11.1376 9.0262 -8.21346 10.9946 -1.3815 10.9946C2.78235 10.9946 6.01641 9.96994 6.54194 8.10269C6.63627 7.75889 6.64301 7.39488 6.52173 6.90279C6.38024 6.35677 6.12421 5.71637 5.90187 5.27146C5.89513 5.25798 5.88166 5.25798 5.88166 5.27146C5.96251 7.72519 -0.869445 9.30258 -4.31237 9.30258C-8.04501 9.30258 -11.1578 7.81282 -11.1578 5.93208C-11.1578 5.75008 -11.1174 5.56807 -11.0769 5.38606C-11.0769 5.36584 -11.0837 5.36584 -11.0972 5.38606M-4.4606 13.2191C-9.29148 13.2191 -11.5688 10.9676 -11.9798 9.4374C-11.9798 9.41718 -12 9.41718 -12 9.4374C-12 9.95646 -11.9461 10.6238 -11.8585 11.062C-11.8181 11.2777 -11.6429 11.6147 -11.3869 11.8844C-10.2145 13.1045 -7.30388 14.81 -2.25739 14.81C4.62172 14.81 6.19159 12.518 6.51499 11.7631C6.74407 11.2238 6.86535 10.2463 6.86535 9.43066C6.86535 9.23517 6.86535 9.07339 6.85187 8.91835C6.85187 8.89138 6.8384 8.89138 6.83166 8.91835C6.48804 10.7654 0.612833 13.2191 -4.46734 13.2191M-1.92725 17.3716C0.397229 17.3716 2.94405 16.7379 4.46675 15.4841C4.88449 15.1403 5.28201 14.6886 5.6391 14.0752C5.84123 13.7247 6.04336 13.3067 6.20506 12.8955C6.2118 12.8753 6.20506 12.8686 6.18485 12.8888C4.76321 14.9785 0.659996 16.2795 -3.58471 16.2795C-6.58295 16.2795 -9.81027 15.3223 -11.0702 13.4887C-11.0837 13.4685 -11.0972 13.482 -11.0904 13.4955C-9.91134 15.9964 -6.34713 17.3648 -1.93399 17.3648M-8.34821 16.893C-6.75139 18.1333 -4.74358 18.8748 -2.56733 18.8748C-0.182207 18.8748 1.98731 17.9917 3.64476 16.5357C3.66498 16.5155 3.65824 16.5087 3.63803 16.5155C2.89689 17.0143 0.774536 18.0996 -2.56733 18.0996C-5.47124 18.0996 -7.30388 17.4525 -8.34147 16.8727C-8.36168 16.866 -8.36842 16.8727 -8.35495 16.893" fill="black" fill-opacity="0.5"/>
</g>
<defs>
<clipPath id="clip0_109_2755">
<rect width="57.7347" height="18.8748" fill="white" transform="translate(-12)"/>
</clipPath>
</defs>
</svg>
