<svg width="88" height="34" viewBox="0 0 88 34" fill="none" xmlns="http://www.w3.org/2000/svg">
<g clip-path="url(#clip0_6_679)">
<path fill-rule="evenodd" clip-rule="evenodd" d="M49.3322 27.2143C49.6599 27.2143 49.8905 26.9836 49.8905 26.6558V10.2386H55.4613C55.789 10.2386 56.0196 10.0079 56.0196 9.68006V7.42149C56.0196 7.09363 55.789 6.86292 55.4613 6.86292H40.6302C40.3025 6.86292 40.0719 7.09363 40.0719 7.42149V9.68006C40.0719 10.0079 40.3025 10.2386 40.6302 10.2386H46.201V26.6558C46.201 26.9836 46.4316 27.2143 46.7592 27.2143H49.3322ZM74.7224 26.5101C75.0501 26.8622 74.8559 27.2265 74.4432 27.2265H71.2148C70.7779 27.2265 70.5473 27.1293 70.2682 26.7893L68.3384 24.6522C67.0398 26.3886 65.2314 27.6758 62.2336 27.6758C58.5198 27.6758 55.5948 25.4415 55.5948 21.5922C55.5948 18.6415 57.1726 17.0629 59.5635 15.7393C58.3984 14.3915 57.8644 12.9586 57.8644 11.7201C57.8644 8.56292 60.0733 6.40149 63.4109 6.40149C66.7485 6.40149 68.9089 8.4172 68.9089 11.3922C68.9089 13.9422 67.0762 15.3629 65.1465 16.4315L67.9986 19.5158L69.6006 16.7108C69.807 16.3829 70.0376 16.2493 70.4381 16.2493H72.9019C73.3145 16.2493 73.533 16.5286 73.2902 16.9658L70.4381 21.8472L74.7345 26.5101H74.7224ZM63.4473 9.54649C62.1244 9.54649 61.3598 10.3843 61.3598 11.5015C61.3598 12.3636 61.821 13.1286 62.8647 14.2458C64.6731 13.2015 65.4377 12.5701 65.4377 11.4408C65.4377 10.3965 64.7823 9.53435 63.4473 9.53435V9.54649ZM62.3064 24.4701C63.9328 24.4701 65.0251 23.6808 65.9232 22.3329L61.7967 17.9008C60.2189 18.7872 59.1994 19.6858 59.1994 21.4708C59.1994 23.2558 60.6194 24.4701 62.3064 24.4701ZM42.5478 26.5586C42.6692 26.8865 42.475 27.2265 42.1109 27.2265H39.465C39.0888 27.2265 38.8582 27.0443 38.7247 26.6922L37.2197 22.3693H29.0032L27.4982 26.6922C27.3768 27.0443 27.1462 27.2265 26.7578 27.2265H24.2698C23.9421 27.2265 23.7115 26.8986 23.8329 26.5586L30.7266 7.36077C30.8601 7.00863 31.0785 6.85077 31.4669 6.85077H34.8773C35.2536 6.85077 35.5085 7.00863 35.642 7.36077L42.5356 26.5586H42.5478ZM36.0546 19.0179L33.1297 10.6151L30.1804 19.0179H36.0546ZM78.7396 27.2143C78.4119 27.2143 78.1813 26.9836 78.1813 26.6558V10.2386H72.6106C72.2829 10.2386 72.0523 10.0079 72.0523 9.68006V7.42149C72.0523 7.09363 72.2829 6.86292 72.6106 6.86292H87.4417C87.7694 6.86292 88 7.09363 88 7.42149V9.68006C88 10.0079 87.7694 10.2386 87.4417 10.2386H81.8709V26.6558C81.8709 26.9836 81.6403 27.2143 81.3126 27.2143H78.7396Z" fill="black" fill-opacity="0.5"/>
<path fill-rule="evenodd" clip-rule="evenodd" d="M9.68141 2.39434C7.13269 0.86434 4.18345 0.00219727 0.99148 0.00219727C-2.20049 0.00219727 -5.25896 0.900769 -7.81982 2.4672C-8.58443 2.94077 -9.02136 3.3172 -9.02136 3.80291C-9.02136 5.23577 -5.67161 6.77791 0.263273 6.77791C6.19815 6.77791 10.7009 5.09005 10.7009 3.46291C10.7009 3.07434 10.3611 2.8072 9.68141 2.39434ZM12.218 4.28863C12.2908 4.39791 12.3272 4.51934 12.3272 4.6772C12.3272 6.57148 6.55012 9.91077 -2.63741 9.91077C-9.3976 9.91077 -10.6598 7.3972 -10.6598 5.80648C-10.6598 5.23577 -10.4414 4.65291 -9.95589 4.05791C-9.93161 4.02148 -9.95589 4.00934 -9.98016 4.03363C-10.854 4.77434 -11.6672 5.6122 -12.3711 6.52291C-12.7109 6.94791 -12.9173 7.32434 -12.9173 7.55505C-12.9173 10.8579 -4.63998 13.2622 3.10328 13.2622C11.3563 13.2622 15.0337 10.5665 15.0337 8.19863C15.0337 7.34863 14.706 6.86291 13.8565 5.90363C13.3103 5.28434 12.7884 4.77434 12.2423 4.27648C12.218 4.2522 12.1937 4.27648 12.218 4.30077M-14.3615 9.70434C-14.8591 10.6879 -15.4174 12.3636 -15.5752 13.2258C-15.648 13.5901 -15.6116 13.7722 -15.4903 14.0515C-14.4465 16.2615 -9.17913 19.8072 3.12755 19.8072C10.6281 19.8072 16.4537 17.9615 17.4004 14.5979C17.5703 13.9786 17.5824 13.3229 17.364 12.4365C17.1091 11.4529 16.6479 10.2993 16.2474 9.49791C16.2353 9.47363 16.211 9.47363 16.211 9.49791C16.3566 13.9179 4.04995 16.7593 -2.15194 16.7593C-8.87572 16.7593 -14.4829 14.0758 -14.4829 10.6879C-14.4829 10.3601 -14.4101 10.0322 -14.3373 9.70434C-14.3373 9.66791 -14.3494 9.66791 -14.3737 9.70434M-2.41895 23.8143C-11.121 23.8143 -15.2232 19.7586 -15.9636 17.0022C-15.9636 16.9658 -16 16.9658 -16 17.0022C-16 17.9372 -15.9029 19.1393 -15.7451 19.9286C-15.6723 20.3172 -15.3568 20.9243 -14.8956 21.4101C-12.7838 23.6079 -7.54067 26.6801 1.54977 26.6801C13.9414 26.6801 16.7693 22.5515 17.3518 21.1915C17.7645 20.2201 17.983 18.4593 17.983 16.9901C17.983 16.6379 17.983 16.3465 17.9587 16.0672C17.9587 16.0186 17.9344 16.0186 17.9223 16.0672C17.3033 19.3943 6.72004 23.8143 -2.43109 23.8143M2.14447 31.2943C6.33166 31.2943 10.9194 30.1529 13.6623 27.8943C14.4148 27.2751 15.1308 26.4615 15.7741 25.3565C16.1382 24.7251 16.5023 23.9722 16.7936 23.2315C16.8057 23.1951 16.7936 23.1829 16.7571 23.2193C14.1963 26.9836 6.80499 29.3272 -0.841172 29.3272C-6.24204 29.3272 -12.0555 27.6029 -14.3251 24.3001C-14.3494 24.2636 -14.3737 24.2879 -14.3615 24.3122C-12.2376 28.8172 -5.81725 31.2822 2.13234 31.2822M-9.42187 30.4322C-6.54545 32.6665 -2.9287 34.0022 0.99148 34.0022C5.2879 34.0022 9.19594 32.4115 12.1816 29.7886C12.218 29.7522 12.2059 29.7401 12.1694 29.7522C10.8344 30.6508 7.01132 32.6058 0.99148 32.6058C-4.23947 32.6058 -7.54067 31.4401 -9.40973 30.3958C-9.44614 30.3836 -9.45828 30.3958 -9.43401 30.4322" fill="black" fill-opacity="0.5"/>
</g>
<defs>
<clipPath id="clip0_6_679">
<rect width="104" height="34" fill="white" transform="translate(-16 0.00219727)"/>
</clipPath>
</defs>
</svg>
