<svg width="104" height="34" viewBox="0 0 104 34" fill="none" xmlns="http://www.w3.org/2000/svg">
<g clip-path="url(#clip0_26_290)">
<path fill-rule="evenodd" clip-rule="evenodd" d="M65.3322 27.2143C65.6599 27.2143 65.8905 26.9836 65.8905 26.6558V10.2386H71.4613C71.789 10.2386 72.0196 10.0079 72.0196 9.68006V7.42149C72.0196 7.09363 71.789 6.86292 71.4613 6.86292H56.6302C56.3025 6.86292 56.0719 7.09363 56.0719 7.42149V9.68006C56.0719 10.0079 56.3025 10.2386 56.6302 10.2386H62.201V26.6558C62.201 26.9836 62.4316 27.2143 62.7592 27.2143H65.3322ZM90.7224 26.5101C91.0501 26.8622 90.8559 27.2265 90.4432 27.2265H87.2148C86.7779 27.2265 86.5473 27.1293 86.2682 26.7893L84.3384 24.6522C83.0398 26.3886 81.2314 27.6758 78.2336 27.6758C74.5198 27.6758 71.5948 25.4415 71.5948 21.5922C71.5948 18.6415 73.1726 17.0629 75.5635 15.7393C74.3984 14.3915 73.8644 12.9586 73.8644 11.7201C73.8644 8.56292 76.0733 6.40149 79.4109 6.40149C82.7485 6.40149 84.9089 8.4172 84.9089 11.3922C84.9089 13.9422 83.0762 15.3629 81.1465 16.4315L83.9986 19.5158L85.6006 16.7108C85.807 16.3829 86.0376 16.2493 86.4381 16.2493H88.9019C89.3145 16.2493 89.533 16.5286 89.2902 16.9658L86.4381 21.8472L90.7345 26.5101H90.7224ZM79.4473 9.54649C78.1244 9.54649 77.3598 10.3843 77.3598 11.5015C77.3598 12.3636 77.821 13.1286 78.8647 14.2458C80.6731 13.2015 81.4377 12.5701 81.4377 11.4408C81.4377 10.3965 80.7823 9.53435 79.4473 9.53435V9.54649ZM78.3064 24.4701C79.9328 24.4701 81.0251 23.6808 81.9232 22.3329L77.7967 17.9008C76.2189 18.7872 75.1994 19.6858 75.1994 21.4708C75.1994 23.2558 76.6194 24.4701 78.3064 24.4701ZM58.5478 26.5586C58.6692 26.8865 58.475 27.2265 58.1109 27.2265H55.465C55.0888 27.2265 54.8582 27.0443 54.7247 26.6922L53.2197 22.3693H45.0032L43.4982 26.6922C43.3768 27.0443 43.1462 27.2265 42.7578 27.2265H40.2698C39.9421 27.2265 39.7115 26.8986 39.8329 26.5586L46.7266 7.36077C46.8601 7.00863 47.0785 6.85077 47.4669 6.85077H50.8773C51.2536 6.85077 51.5085 7.00863 51.642 7.36077L58.5356 26.5586H58.5478ZM52.0546 19.0179L49.1297 10.6151L46.1804 19.0179H52.0546ZM94.7396 27.2143C94.4119 27.2143 94.1813 26.9836 94.1813 26.6558V10.2386H88.6106C88.2829 10.2386 88.0523 10.0079 88.0523 9.68006V7.42149C88.0523 7.09363 88.2829 6.86292 88.6106 6.86292H103.442C103.769 6.86292 104 7.09363 104 7.42149V9.68006C104 10.0079 103.769 10.2386 103.442 10.2386H97.8709V26.6558C97.8709 26.9836 97.6403 27.2143 97.3126 27.2143H94.7396Z" fill="black" fill-opacity="0.5"/>
<path fill-rule="evenodd" clip-rule="evenodd" d="M25.6814 2.39434C23.1327 0.86434 20.1835 0.00219727 16.9915 0.00219727C13.7995 0.00219727 10.741 0.900769 8.18018 2.4672C7.41557 2.94077 6.97864 3.3172 6.97864 3.80291C6.97864 5.23577 10.3284 6.77791 16.2633 6.77791C22.1982 6.77791 26.7009 5.09005 26.7009 3.46291C26.7009 3.07434 26.3611 2.8072 25.6814 2.39434ZM28.218 4.28863C28.2908 4.39791 28.3272 4.51934 28.3272 4.6772C28.3272 6.57148 22.5501 9.91077 13.3626 9.91077C6.6024 9.91077 5.34018 7.3972 5.34018 5.80648C5.34018 5.23577 5.55864 4.65291 6.04411 4.05791C6.06839 4.02148 6.04411 4.00934 6.01984 4.03363C5.14599 4.77434 4.33283 5.6122 3.62889 6.52291C3.28907 6.94791 3.08274 7.32434 3.08274 7.55505C3.08274 10.8579 11.36 13.2622 19.1033 13.2622C27.3563 13.2622 31.0337 10.5665 31.0337 8.19863C31.0337 7.34863 30.706 6.86291 29.8565 5.90363C29.3103 5.28434 28.7884 4.77434 28.2423 4.27648C28.218 4.2522 28.1937 4.27648 28.218 4.30077M1.63846 9.70434C1.14086 10.6879 0.582565 12.3636 0.424787 13.2258C0.351966 13.5901 0.388377 13.7722 0.509744 14.0515C1.55351 16.2615 6.82087 19.8072 19.1276 19.8072C26.6281 19.8072 32.4537 17.9615 33.4004 14.5979C33.5703 13.9786 33.5824 13.3229 33.364 12.4365C33.1091 11.4529 32.6479 10.2993 32.2474 9.49791C32.2353 9.47363 32.211 9.47363 32.211 9.49791C32.3566 13.9179 20.0499 16.7593 13.8481 16.7593C7.12428 16.7593 1.5171 14.0758 1.5171 10.6879C1.5171 10.3601 1.58992 10.0322 1.66274 9.70434C1.66274 9.66791 1.6506 9.66791 1.62633 9.70434M13.581 23.8143C4.87898 23.8143 0.776753 19.7586 0.0364103 17.0022C0.0364103 16.9658 0 16.9658 0 17.0022C0 17.9372 0.0970942 19.1393 0.254872 19.9286C0.327693 20.3172 0.643249 20.9243 1.10445 21.4101C3.21624 23.6079 8.45933 26.6801 17.5498 26.6801C29.9414 26.6801 32.7693 22.5515 33.3518 21.1915C33.7645 20.2201 33.983 18.4593 33.983 16.9901C33.983 16.6379 33.983 16.3465 33.9587 16.0672C33.9587 16.0186 33.9344 16.0186 33.9223 16.0672C33.3033 19.3943 22.72 23.8143 13.5689 23.8143M18.1445 31.2943C22.3317 31.2943 26.9194 30.1529 29.6623 27.8943C30.4148 27.2751 31.1308 26.4615 31.7741 25.3565C32.1382 24.7251 32.5023 23.9722 32.7936 23.2315C32.8057 23.1951 32.7936 23.1829 32.7571 23.2193C30.1963 26.9836 22.805 29.3272 15.1588 29.3272C9.75796 29.3272 3.94445 27.6029 1.67487 24.3001C1.6506 24.2636 1.62633 24.2879 1.63846 24.3122C3.7624 28.8172 10.1828 31.2822 18.1323 31.2822M6.57813 30.4322C9.45455 32.6665 13.0713 34.0022 16.9915 34.0022C21.2879 34.0022 25.1959 32.4115 28.1816 29.7886C28.218 29.7522 28.2059 29.7401 28.1694 29.7522C26.8344 30.6508 23.0113 32.6058 16.9915 32.6058C11.7605 32.6058 8.45933 31.4401 6.59027 30.3958C6.55386 30.3836 6.54172 30.3958 6.56599 30.4322" fill="black" fill-opacity="0.5"/>
</g>
<defs>
<clipPath id="clip0_26_290">
<rect width="104" height="34" fill="white" transform="translate(0 0.00219727)"/>
</clipPath>
</defs>
</svg>
