<svg width="211" height="29" viewBox="0 0 211 29" fill="none" xmlns="http://www.w3.org/2000/svg">
<g clip-path="url(#clip0_11_209)">
<path d="M48.2582 6.18786V13.2876H59.8532V17.2695H48.2582V24.5195H61.8065V28.5013H43.8255V2.20599H61.3558V6.18786H48.2582Z" fill="black" fill-opacity="0.5"/>
<path d="M80.9583 28.5013V25.4085H80.8832C79.4432 27.8502 76.8199 29.0022 74.1278 29.0022C67.41 29.0022 63.5596 23.8621 63.5596 18.6155C63.5596 13.7634 66.9717 8.0473 74.1278 8.0473C76.8951 8.0473 79.4495 9.19929 80.8832 11.3906H80.9583V8.58573H85.0153V28.4951H80.9583V28.5013ZM74.4847 11.8413C70.2524 11.8413 68.1988 15.6229 68.1988 18.5842C68.1988 21.9901 70.8096 25.2269 74.4534 25.2269C78.0971 25.2269 80.8394 22.1967 80.8394 18.5842C80.8394 14.5648 78.0283 11.8413 74.4909 11.8413H74.4847Z" fill="black" fill-opacity="0.5"/>
<path d="M92.4594 12.4988C93.8117 9.7941 96.2159 8.36664 99.3713 8.36664V12.4988C95.3519 12.2734 92.7975 14.64 92.4594 18.0583V28.5014H88.1395V8.5169H92.4594V12.4988Z" fill="black" fill-opacity="0.5"/>
<path d="M111.041 24.1501C110.058 24.557 109.113 24.7824 108.525 24.7824C107.172 24.7824 106.383 24.1438 106.383 22.0778V12.4987H112.281V8.64209H106.383V2.20599H102.101V22.8666C102.101 26.9612 104.693 28.6892 107.698 28.6892C108.831 28.6892 109.952 28.445 111.041 28.0067V24.1501Z" fill="black" fill-opacity="0.5"/>
<path d="M134.482 16.0674V28.5013H130.162V17.2695C130.162 14.2643 128.359 12.4236 125.354 12.4236C121.785 12.4612 119.644 15.1283 119.644 18.6594V28.5013H115.324V0.00219727H119.644V12.4236C121.071 9.60626 123.626 8.36662 127.044 8.36662C131.702 8.36662 134.482 11.2967 134.482 16.0674Z" fill="black" fill-opacity="0.5"/>
<path d="M153.565 24.4819V28.5013H137.75V2.20599H142.183V24.4819H153.565Z" fill="black" fill-opacity="0.5"/>
<path d="M155.881 28.5014V8.51691H160.164V28.5014H155.881Z" fill="black" fill-opacity="0.5"/>
<path d="M182.465 16.0674V28.5014H178.145V17.2695C178.145 14.2643 176.342 12.4236 173.336 12.4236C170.031 12.4612 167.965 14.7526 167.664 17.8705V28.5014H163.344V8.5169H167.664V12.3485C169.092 9.56871 171.646 8.36664 175.027 8.36664C179.685 8.36664 182.465 11.2967 182.465 16.0674Z" fill="black" fill-opacity="0.5"/>
<path d="M189.79 22.9042V28.5013H185.47V2.20599H189.79V17.4573L198.617 8.51687H203.576L196.176 16.2552L204.139 28.5013H199.031L193.171 19.3355L189.79 22.9042Z" fill="black" fill-opacity="0.5"/>
<path d="M158.022 6.70751C159.412 6.70751 160.539 5.58068 160.539 4.19067C160.539 2.80066 159.412 1.67383 158.022 1.67383C156.632 1.67383 155.506 2.80066 155.506 4.19067C155.506 5.58068 156.632 6.70751 158.022 6.70751Z" fill="black" fill-opacity="0.5"/>
<path d="M210.751 5.22998C210.751 6.97048 209.348 8.43551 207.558 8.43551C205.767 8.43551 204.39 6.98927 204.39 5.25503C204.39 3.52079 205.78 2.0495 207.57 2.0495C209.361 2.0495 210.745 3.48322 210.745 5.22998H210.751ZM210.075 5.22998C210.075 3.87139 208.985 2.75071 207.577 2.75071C206.168 2.75071 205.072 3.89017 205.072 5.24877C205.072 6.60736 206.155 7.72804 207.564 7.72804C208.973 7.72804 210.081 6.58858 210.081 5.22998H210.075ZM208.334 5.64946L209.004 6.66371H208.221L207.733 5.78093H207.038V6.66371H206.362V3.6147H207.658C208.466 3.6147 208.916 4.00287 208.916 4.66651C208.916 5.14233 208.71 5.48042 208.334 5.64946ZM207.658 5.23624C208.04 5.23624 208.265 5.0359 208.265 4.69155C208.265 4.34721 208.04 4.15313 207.658 4.15313H207.038V5.23624H207.658Z" fill="black" fill-opacity="0.5"/>
</g>
<g clip-path="url(#clip1_11_209)">
<path d="M5.22729 16.6697C4.76678 14.7298 4.85984 12.703 5.49626 10.8114C6.13269 8.91983 7.28793 7.23648 8.8354 5.94579C10.3829 4.6551 12.2629 3.80686 14.2694 3.49402C16.276 3.18117 18.3317 3.41579 20.2113 4.17217C21.2639 3.48799 22.4317 2.77075 23.6205 2.11965C21.0144 0.542552 17.9657 -0.184802 14.9118 0.0419307C11.8578 0.268663 8.95565 1.43783 6.62154 3.3817C4.28742 5.32558 2.64133 7.94426 1.91942 10.8621C1.19751 13.7799 1.43687 16.8469 2.60317 19.6231C3.38599 18.6721 4.26534 17.6834 5.22729 16.6697Z" fill="black" fill-opacity="0.5"/>
<path d="M25.6421 3.59875L25.5886 3.62612C24.9791 3.93856 24.3161 4.31029 23.6112 4.7208C23.2448 4.93745 22.8645 5.16893 22.4771 5.41181C23.8385 6.37324 24.9591 7.62548 25.7542 9.07389C26.5493 10.5223 26.9981 12.1289 27.0667 13.7724C27.1354 15.4158 26.822 17.0531 26.1502 18.5603C25.4785 20.0676 24.466 21.4054 23.1894 22.4727C21.9127 23.5399 20.4052 24.3087 18.7809 24.7209C17.1567 25.1331 15.458 25.1778 13.8135 24.8518C12.1689 24.5258 10.6215 23.8376 9.28817 22.8391C7.95484 21.8407 6.8705 20.5581 6.11712 19.0884C5.34555 19.9421 4.56467 20.8582 3.77449 21.8365C4.88595 23.5525 6.36002 25.0148 8.09717 26.1246C9.83433 27.2344 11.7941 27.966 13.8443 28.2699C15.8945 28.5738 17.9873 28.4429 19.9815 27.8862C21.9757 27.3295 23.8249 26.3598 25.4042 25.0427C26.9835 23.7255 28.2561 22.0916 29.1363 20.2511C30.0164 18.4106 30.4835 16.4064 30.506 14.3739C30.5286 12.3413 30.1061 10.3276 29.267 8.4688C28.4279 6.60998 27.1918 4.94926 25.6421 3.59875Z" fill="black" fill-opacity="0.5"/>
<path d="M23.6193 4.71935C24.3172 4.30543 24.9826 3.93712 25.5967 3.62468C26.9693 2.80092 28.5042 2.27124 30.1005 2.07046C30.2298 2.05512 30.3609 2.06614 30.4856 2.10284C30.6103 2.13953 30.7259 2.20111 30.8252 2.2837C31.1311 2.63263 31.0101 4.06711 28.6384 7.23255C28.83 7.56552 29.0083 7.9076 29.1735 8.25881C31.7325 4.97478 32.57 2.69306 31.622 1.61435C31.4272 1.41492 31.1897 1.26034 30.9266 1.16175C30.6635 1.06316 30.3814 1.02301 30.1005 1.0442C27.9173 1.0442 23.51 3.26663 18.4444 6.8688C18.6931 7.11469 18.9018 7.39659 19.0632 7.70463C20.6207 6.59627 22.2131 5.54948 23.6193 4.71935Z" fill="black" fill-opacity="0.5"/>
<path d="M7.23493 25.5231C5.61608 26.5545 3.78814 27.2291 1.87736 27.5003C1.74984 27.5117 1.62131 27.4957 1.50077 27.4534C1.38022 27.411 1.27056 27.3434 1.17946 27.2552C0.830505 26.8526 1.1969 25.0521 3.69423 21.9357C6.5993 18.3425 9.86693 15.0459 13.4474 12.0962C13.601 11.9662 14.2791 11.412 14.8269 10.9559C15.2175 11.214 15.6848 11.3365 16.1546 11.3041C16.6245 11.2717 17.0697 11.0861 17.4194 10.7769C17.7692 10.4677 18.0034 10.0526 18.0847 9.59785C18.166 9.14308 18.0898 8.67471 17.8682 8.26732C17.6465 7.85993 17.2922 7.53695 16.8617 7.3498C16.4311 7.16264 15.9491 7.12208 15.4923 7.23457C15.0355 7.34706 14.6303 7.60614 14.3411 7.97054C14.0519 8.33495 13.8953 8.78373 13.8964 9.24544C13.8986 9.57167 13.9804 9.89266 14.1349 10.1816C13.6207 10.6012 13.0066 11.1064 12.8554 11.233C9.18614 14.256 5.83499 17.6318 2.8521 21.3097C0.243104 24.6838 -0.566463 26.8492 0.383848 27.9325C0.572268 28.1333 0.804605 28.2898 1.06345 28.3901C1.3223 28.4904 1.60095 28.532 1.87852 28.5117C4.12383 28.2142 6.27124 27.422 8.15965 26.1947L8.18756 26.1787C7.86188 25.9735 7.54511 25.7561 7.23725 25.5265" fill="black" fill-opacity="0.5"/>
</g>
<defs>
<clipPath id="clip0_11_209">
<rect width="166.925" height="29" fill="white" transform="translate(43.8255 0.00219727)"/>
</clipPath>
<clipPath id="clip1_11_209">
<rect width="32" height="28.5072" fill="white"/>
</clipPath>
</defs>
</svg>
