<svg width="160" height="25" viewBox="0 0 160 25" fill="none" xmlns="http://www.w3.org/2000/svg">
<g clip-path="url(#clip0_174_126)">
<path d="M78.3047 16.0277C78.5307 15.8038 78.6688 15.4922 78.6688 15.1503C78.6688 13.4515 78.3244 11.972 77.6341 10.7088C76.9422 9.44719 75.9864 8.47599 74.7665 7.79978C73.5467 7.12206 72.1418 6.7832 70.5532 6.7832C68.9647 6.7832 67.4688 7.14475 66.2019 7.86786C64.9365 8.59096 63.9458 9.60754 63.2327 10.9161C62.5181 12.2231 62.1616 13.751 62.1616 15.4952V15.9082C62.1616 17.6298 62.5181 19.1455 63.2327 20.4526C63.9458 21.7611 64.9472 22.7777 66.2368 23.5008C67.5264 24.2239 69.0224 24.5855 70.7262 24.5855C72.2464 24.5855 73.4951 24.3449 74.4737 23.8624C75.4523 23.3798 76.2458 22.7838 76.8557 22.0712C77.4656 21.3602 77.9436 20.6492 78.2895 19.9367L75.9409 18.8006C75.5267 19.7189 74.9274 20.5116 74.146 21.1772C73.3631 21.8428 72.2464 22.1756 70.796 22.1756C69.1377 22.1756 67.757 21.6643 66.651 20.6432C65.5465 19.6221 64.9593 18.2046 64.8895 16.3908H77.4262C77.7691 16.3908 78.0801 16.2516 78.3047 16.0277ZM64.9244 14.1519C65.155 12.5907 65.7649 11.3745 66.7557 10.5016C67.7449 9.63023 69.0118 9.19304 70.5532 9.19304C72.0947 9.19304 73.3221 9.63023 74.3007 10.5016C75.2793 11.3745 75.8149 12.5907 75.906 14.1519H64.9244Z" fill="white"/>
<path d="M79.9812 0V24.1029H82.7091V0H79.9812Z" fill="white"/>
<path d="M84.9894 7.26592V24.103H87.7174V7.26592H84.9894ZM87.8555 1.06811C87.464 0.677813 86.9679 0.482666 86.3701 0.482666C85.7723 0.482666 85.2701 0.677813 84.8681 1.06811C84.4645 1.4584 84.2642 1.96215 84.2642 2.58239C84.2642 3.20262 84.4645 3.67309 84.8681 4.06339C85.2701 4.45368 85.7708 4.64883 86.3701 4.64883C86.9694 4.64883 87.464 4.45368 87.8555 4.06339C88.2469 3.67309 88.4426 3.17993 88.4426 2.58239C88.4426 1.98484 88.2469 1.4584 87.8555 1.06811Z" fill="white"/>
<path d="M105.347 10.8813C104.621 9.57275 103.609 8.56222 102.307 7.85122C101.007 7.14022 99.5046 6.7832 97.8008 6.7832C96.0969 6.7832 94.5949 7.14022 93.2946 7.85122C91.9929 8.56222 90.9809 9.57275 90.2557 10.8813C89.5305 12.1898 89.1678 13.7162 89.1678 15.4604V15.9082C89.1678 17.6766 89.5305 19.2091 90.2557 20.5055C90.9809 21.802 91.9929 22.8064 93.2946 23.5174C94.5949 24.2284 96.0969 24.5855 97.8008 24.5855C99.5046 24.5855 101.007 24.2284 102.307 23.5174C103.609 22.8064 104.621 21.802 105.347 20.5055C106.071 19.2091 106.434 17.6766 106.434 15.9082V15.4604C106.434 13.7162 106.071 12.1898 105.347 10.8813ZM103.706 15.8401C103.706 17.7674 103.172 19.2998 102.101 20.4359C101.029 21.572 99.5971 22.1408 97.8008 22.1408C96.0044 22.1408 94.601 21.572 93.5192 20.4359C92.4359 19.2998 91.8958 17.7674 91.8958 15.8401V15.53C91.8958 13.6012 92.4359 12.0688 93.5192 10.9327C94.601 9.79664 96.0271 9.22784 97.8008 9.22784C99.5744 9.22784 101.029 9.79664 102.101 10.9327C103.172 12.0688 103.706 13.6012 103.706 15.53V15.8401Z" fill="white"/>
<path d="M122.631 10.089C122.032 9.05578 121.233 8.2767 120.231 7.74723C119.228 7.22079 118.095 6.95605 116.83 6.95605C115.102 6.95605 113.795 7.28281 112.909 7.93784C112.102 8.53236 111.51 9.19041 111.133 9.90898C111.063 10.0436 110.92 10.1238 110.77 10.1238C110.541 10.1238 110.354 9.93923 110.354 9.71081V7.45527H107.696V24.1033H110.612V15.6333C110.612 13.5442 111.125 11.9724 112.149 10.9165C113.173 9.86057 114.504 9.3311 116.138 9.3311C117.565 9.3311 118.699 9.7108 119.539 10.4687C120.38 11.2251 120.8 12.4429 120.8 14.1175V24.1033H123.528V13.9118C123.528 12.396 123.229 11.1222 122.631 10.089Z" fill="white"/>
<path d="M140.915 16.0277C141.14 15.8038 141.279 15.4922 141.279 15.1503C141.279 13.4515 140.934 11.972 140.243 10.7088C139.553 9.44719 138.597 8.47599 137.377 7.79978C136.156 7.12206 134.752 6.7832 133.164 6.7832C131.575 6.7832 130.078 7.14475 128.813 7.86786C127.546 8.59096 126.555 9.60754 125.842 10.9161C125.129 12.2231 124.772 13.751 124.772 15.4952V15.9082C124.772 17.6298 125.129 19.1455 125.842 20.4526C126.555 21.7611 127.556 22.7777 128.846 23.5008C130.136 24.2239 131.632 24.5855 133.337 24.5855C134.856 24.5855 136.104 24.3449 137.083 23.8624C138.061 23.3798 138.855 22.7838 139.466 22.0712C140.076 21.3602 140.554 20.6492 140.899 19.9367L138.552 18.8006C138.136 19.7189 137.538 20.5116 136.755 21.1772C135.972 21.8428 134.856 22.1756 133.405 22.1756C131.747 22.1756 130.366 21.6643 129.262 20.6432C128.156 19.6221 127.568 18.2046 127.5 16.3908H140.035C140.378 16.3908 140.691 16.2516 140.915 16.0277ZM127.534 14.1519C127.764 12.5907 128.374 11.3745 129.365 10.5016C130.354 9.63023 131.621 9.19304 133.164 9.19304C134.707 9.19304 135.931 9.63023 136.91 10.5016C137.888 11.3745 138.424 12.5907 138.517 14.1519H127.534Z" fill="white"/>
<path d="M152.258 15.5634L158.855 7.26587H155.54L150.911 13.2821C150.671 13.5923 150.302 13.7738 149.911 13.7738C149.521 13.7738 149.152 13.5938 148.914 13.2852L144.25 7.26587H140.97L147.532 15.5634L140.762 24.103H144.112L148.914 17.8794C149.034 17.7251 149.186 17.6026 149.355 17.5194C149.527 17.4347 149.717 17.3893 149.912 17.3893C150.304 17.3893 150.672 17.5708 150.912 17.8794L155.714 24.103H159.029L152.259 15.5634H152.258Z" fill="white"/>
<path d="M64.8137 0.0166016L56.6344 24.18H50.5898L42.1693 0.0166016H45.181L52.3968 20.8731C52.5743 21.3875 53.0598 21.7309 53.6045 21.7309C54.1537 21.7309 54.6423 21.3799 54.8168 20.861L61.8035 0.0166016H64.8137Z" fill="white"/>
<path d="M26.4389 3.09637L26.3448 2.92694C26.3402 2.91937 26.3357 2.9103 26.3311 2.90273C25.3313 1.17969 23.5091 0.0980605 21.5216 0.042088C21.4564 0.042088 21.3926 0.0390625 21.3274 0.0390625H5.80331C5.73807 0.0390625 5.67435 0.0405753 5.60911 0.042088C3.62005 0.0980605 1.79788 1.17969 0.798039 2.90273C0.793487 2.9103 0.788935 2.91937 0.784384 2.92694C0.719144 3.03888 0.658456 3.15234 0.602319 3.26731C-0.200285 4.87236 -0.200285 6.76029 0.602319 8.36534C0.658456 8.48031 0.719144 8.59377 0.784384 8.70571L2.52917 11.7207L8.56008 22.1361C9.55992 23.8591 11.3821 24.9407 13.3711 24.9967L13.5654 24.9997C13.6306 24.9997 13.6943 24.9997 13.7596 24.9967C15.7471 24.9407 17.5693 23.8591 18.5691 22.1361L24.6 11.7207L26.3448 8.70571C26.3767 8.64974 26.4085 8.59377 26.4389 8.53628C27.3583 6.83895 27.3583 4.79369 26.4389 3.09637ZM13.5259 18.7399C9.08807 18.7399 5.49077 15.1531 5.49077 10.7283C5.49077 6.30343 9.08807 2.71666 13.5259 2.71666C17.9637 2.71666 21.561 6.30343 21.561 10.7283C21.561 15.1531 17.9637 18.7399 13.5259 18.7399Z" fill="white"/>
</g>
<defs>
<clipPath id="clip0_174_126">
<rect width="159.028" height="25" fill="white"/>
</clipPath>
</defs>
</svg>
