<svg width="16" height="16" viewBox="0 0 16 16" fill="none" xmlns="http://www.w3.org/2000/svg">
<g clip-path="url(#clip0_97_1359)">
<path fill-rule="evenodd" clip-rule="evenodd" d="M8 16C12.2909 16 15.8036 12.6109 15.9927 8.36365H16V7.63637H15.9927C15.9782 7.29456 15.9418 6.96001 15.8836 6.63274C15.8036 6.14547 15.6727 5.66547 15.4982 5.20001C15.28 4.61819 14.9964 4.06546 14.6545 3.55637C14.2982 3.02546 13.8764 2.53092 13.4036 2.10183C12.9891 1.72365 12.5382 1.3891 12.0509 1.09819C11.5855 0.821828 11.0836 0.596373 10.5745 0.421828C10.0873 0.254555 9.57818 0.138191 9.06909 0.0654641C8.71273 0.0218277 8.35636 -0.00726318 8 -0.00726318C3.70909 9.54513e-06 0.196364 3.3891 0.00727273 7.63637H0V8.36365H0.00727273C0.196364 12.6109 3.70182 16 8 16ZM10.9673 12.16C10.1018 12.2764 9.23636 12.3418 8.36364 12.3564V15.2436C8.99636 15.1127 9.57818 14.6473 10.0655 13.9564C10.4145 13.4618 10.7273 12.8582 10.9673 12.1673V12.16ZM5.01818 12.1309C5.26545 12.8364 5.57818 13.4473 5.93455 13.9491C6.42909 14.6327 7.00364 15.1055 7.63636 15.2364V12.3491C6.77091 12.3273 5.89818 12.2546 5.01818 12.1309ZM1.55636 11.3746C2.43636 13.0546 3.96364 14.3564 5.80364 14.9382C5.64364 14.7709 5.49091 14.5818 5.34545 14.3782C4.89455 13.7382 4.50909 12.9309 4.21818 12.0073C3.33818 11.8473 2.45091 11.6436 1.56364 11.3746H1.55636ZM14.4436 11.3818C13.5636 11.6582 12.6764 11.8764 11.7818 12.0291C11.4909 12.9455 11.1127 13.7455 10.6618 14.3709C10.5164 14.5746 10.3636 14.7636 10.2036 14.9309C12.0364 14.3491 13.5636 13.0546 14.4436 11.3746V11.3818ZM11.6291 8.36365H8.36364V11.6218C9.31636 11.6073 10.2691 11.5346 11.2073 11.3891C11.4545 10.4727 11.6 9.44728 11.6291 8.36365ZM7.63636 11.6218V8.36365H4.37091C4.4 9.44001 4.54545 10.4509 4.78545 11.36C5.74545 11.5127 6.69818 11.6 7.64364 11.6218H7.63636ZM15.2655 8.36365H12.3636C12.3418 9.3891 12.2109 10.3636 12 11.2509C12.8727 11.0836 13.7455 10.8509 14.6109 10.5673L14.8436 10.4873C15.0836 9.81819 15.2364 9.10547 15.2727 8.36365H15.2655ZM3.64364 8.36365H0.734545C0.770909 9.10547 0.923636 9.82547 1.16364 10.4946L1.38909 10.5673C2.26182 10.8364 3.13455 11.0546 4 11.2291C3.78909 10.3491 3.66545 9.38183 3.64364 8.37092V8.36365ZM4 4.77092C3.14182 4.93819 2.26909 5.16365 1.38909 5.43274L1.16364 5.50547C0.916364 6.17456 0.770909 6.88728 0.734545 7.6291H3.63636C3.65818 6.61092 3.78909 5.64365 4 4.76365V4.77092ZM8.36364 4.36365V7.63637H11.6291C11.6 6.54547 11.4545 5.51274 11.2073 4.60365C10.2691 4.45819 9.32364 4.37819 8.36364 4.37092V4.36365ZM11.9927 4.73456C12.2036 5.62183 12.3345 6.60365 12.3636 7.63637H15.2655C15.2291 6.89456 15.0836 6.18183 14.8364 5.51274L14.5964 5.43274C13.7382 5.14183 12.8655 4.9091 11.9855 4.73456H11.9927ZM7.63636 4.37092C6.69818 4.39274 5.74545 4.48001 4.78545 4.63274C4.54545 5.54183 4.39273 6.56001 4.37091 7.63637H7.63636V4.37092ZM5.80364 1.0691C3.96364 1.65092 2.44364 2.94546 1.55636 4.63274C2.45091 4.36365 3.33818 4.15274 4.21818 3.99274C4.50909 3.0691 4.89455 2.26183 5.34545 1.6291C5.49091 1.42546 5.64364 1.23637 5.80364 1.0691ZM10.1964 1.0691C10.3564 1.23637 10.5091 1.42546 10.6545 1.6291C11.1055 2.25456 11.4836 3.04728 11.7745 3.96365C12.6764 4.12365 13.5636 4.34183 14.4364 4.62547C13.5491 2.94546 12.0291 1.65819 10.1964 1.07637V1.0691ZM7.63636 0.763646C7.00364 0.894555 6.42182 1.36001 5.93455 2.05092C5.57818 2.55274 5.27273 3.16365 5.02545 3.86183C5.90545 3.73819 6.77818 3.66547 7.64364 3.64365V0.763646H7.63636ZM8.36364 0.763646V3.63637C9.24364 3.64365 10.1091 3.7091 10.9673 3.83274C10.72 3.1491 10.4145 2.54546 10.0655 2.05092C9.57091 1.36728 8.99636 0.894555 8.36364 0.763646Z" fill="#252525"/>
</g>
<defs>
<clipPath id="clip0_97_1359">
<rect width="16" height="16" fill="white"/>
</clipPath>
</defs>
</svg>
