<svg width="143" height="32" viewBox="0 0 143 32" fill="none" xmlns="http://www.w3.org/2000/svg">
<g clip-path="url(#clip0_9_141)">
<mask id="mask0_9_141" style="mask-type:luminance" maskUnits="userSpaceOnUse" x="0" y="0" width="143" height="33">
<path d="M143 0.00219727H0V32.0022H143V0.00219727Z" fill="white"/>
</mask>
<g mask="url(#mask0_9_141)">
<path d="M64.3819 10.3609H61.2593V27.5718H64.3819V10.3609Z" fill="black" fill-opacity="0.5"/>
<path d="M54.9538 10.3609L46.6885 19.0706V3.66583H43.5658V27.5718H46.6885V23.302L49.5025 20.4116L55.209 27.5718H59.1983L51.6925 18.1403L59.2298 10.3609H54.9538Z" fill="black" fill-opacity="0.5"/>
<path d="M64.5584 4.27539H61.0796V7.99986H64.5584V4.27539Z" fill="black" fill-opacity="0.5"/>
<path d="M75.5116 9.99524C72.6501 9.99524 70.0793 11.4228 68.7967 13.7229C68.6802 13.9219 67.719 15.6317 67.719 18.0185V27.5687H70.8415V17.7458C70.8415 15.0254 72.7199 13.0493 75.3067 13.0493C77.8936 13.0493 79.3214 14.6725 79.3214 17.502V27.5687H82.444V17.2293C82.444 12.9017 79.6581 9.99524 75.5147 9.99524H75.5116Z" fill="black" fill-opacity="0.5"/>
<path d="M93.1132 9.99518C88.5916 9.99518 85.0531 13.9218 85.0531 18.9359V18.9969C85.0531 24.0912 88.6198 27.9343 93.3558 27.9343C96.7305 27.9343 98.7125 26.3945 100.064 24.9637C100.181 24.8418 100.169 24.6494 100.046 24.5339L98.2492 22.8721C98.1327 22.763 97.9535 22.7759 97.8428 22.8882C96.5417 24.2227 95.1266 24.8483 93.4159 24.8483C91.311 24.8483 88.9635 23.456 88.3804 20.418H100.732C100.846 20.418 100.934 20.325 100.937 20.2127V18.9648C100.94 13.6844 97.7231 9.99518 93.1164 9.99518H93.1132ZM88.3868 17.3928C88.9161 14.8297 90.7753 13.0525 93.0537 13.0525C95.8453 13.0525 97.1938 15.1569 97.5881 17.3928H88.3868Z" fill="black" fill-opacity="0.5"/>
<path d="M107.826 5.40137H104.703V10.3802H102.264V13.415H104.703V22.7438C104.703 25.8909 106.66 27.8478 109.808 27.8478C110.772 27.8478 111.595 27.6809 112.445 27.3088C112.553 27.2607 112.615 27.1388 112.587 27.0201L111.998 24.5082C111.97 24.3928 111.847 24.335 111.739 24.3799C111.093 24.6558 110.617 24.7617 110.047 24.7617C108.491 24.7617 107.826 24.1137 107.826 22.593V13.4246H113.176V10.3674H107.826V5.40137Z" fill="black" fill-opacity="0.5"/>
<path d="M119.582 4.27539H116.101V7.99986H119.582V4.27539Z" fill="black" fill-opacity="0.5"/>
<path d="M119.402 10.361H116.28V27.5719H119.402V10.361Z" fill="black" fill-opacity="0.5"/>
<path d="M135.608 22.5449C134.263 24.0751 132.754 24.8515 131.115 24.8515C128.058 24.8515 125.664 22.2659 125.664 18.907C125.664 15.5483 128.005 13.0845 130.995 13.0845C132.883 13.0845 134.156 14.0052 135.486 15.3879L137.72 13.1198C136.352 11.6666 134.355 9.99841 131.024 9.99841C126.282 9.99841 122.421 14.0212 122.421 18.968V19.029C122.421 23.9404 126.282 27.9376 131.024 27.9376C134.547 27.9376 136.614 26.0192 137.862 24.5788L135.605 22.5449H135.608Z" fill="black" fill-opacity="0.5"/>
<path d="M138.565 25.6643C138.689 25.4479 138.858 25.2767 139.071 25.1506C139.285 25.0246 139.523 24.9622 139.784 24.9622C140.046 24.9622 140.291 25.0246 140.507 25.148C140.723 25.2714 140.893 25.4413 141.016 25.6577C141.14 25.874 141.201 26.1156 141.201 26.381C141.201 26.6464 141.14 26.888 141.016 27.1044C140.892 27.3207 140.721 27.4905 140.507 27.614C140.291 27.7374 140.051 27.7998 139.784 27.7998C139.518 27.7998 139.285 27.7387 139.071 27.614C138.858 27.4905 138.689 27.3207 138.565 27.1044C138.441 26.888 138.38 26.6491 138.38 26.3876C138.38 26.1261 138.441 25.8806 138.565 25.6643ZM140.833 25.7558C140.727 25.5687 140.583 25.4214 140.401 25.3139C140.218 25.2064 140.013 25.1533 139.783 25.1533C139.553 25.1533 139.354 25.2064 139.172 25.3139C138.99 25.4214 138.845 25.5687 138.741 25.7558C138.634 25.9443 138.583 26.154 138.583 26.3863C138.583 26.6185 138.634 26.8216 138.741 27.0061C138.846 27.1906 138.99 27.338 139.172 27.4441C139.354 27.5503 139.558 27.6047 139.783 27.6047C140.008 27.6047 140.218 27.5516 140.401 27.4441C140.584 27.3366 140.728 27.1893 140.833 27.0022C140.937 26.815 140.991 26.6066 140.991 26.3784C140.991 26.1501 140.938 25.943 140.833 25.7545V25.7558ZM139.854 25.5674C140.022 25.5674 140.157 25.6125 140.257 25.7028C140.358 25.793 140.408 25.9098 140.408 26.0518C140.408 26.1713 140.373 26.2708 140.303 26.3518C140.234 26.4328 140.137 26.4845 140.015 26.5084L140.415 27.1933H140.184L139.811 26.5442H139.468V27.1933H139.263V25.5674H139.854ZM139.468 26.3664H139.847C139.95 26.3664 140.034 26.3385 140.099 26.2841C140.165 26.2297 140.197 26.1527 140.197 26.0518C140.197 25.951 140.165 25.882 140.099 25.8275C140.034 25.7731 139.949 25.7453 139.847 25.7453H139.468V26.3664Z" fill="black" fill-opacity="0.5"/>
<path d="M8.92637 23.7415C9.815 26.664 11.2171 28.1717 16.7946 29.58C22.0568 30.9082 30.4072 33.574 32.1308 30.7606C33.2179 29.1149 32.6129 26.7538 32.26 24.8643C31.9858 23.6196 31.7085 22.5032 31.4628 21.2842C31.3809 20.8832 30.8231 20.8896 30.7475 21.2906C30.3441 23.4078 29.6383 24.9285 28.0596 25.971C25.3655 27.9504 19.0413 26.7121 15.657 25.2364C12.0459 23.7319 11.0376 20.8703 10.7886 17.7618C10.6941 16.0969 10.9241 14.4896 11.3621 13.1102C11.4913 12.7028 10.9619 12.4333 10.7193 12.7798C8.79715 15.5162 8.18269 20.4982 8.92323 23.7415" fill="black" fill-opacity="0.5"/>
<path d="M24.7383 24.3606C27.609 23.456 29.09 22.0284 30.4733 16.3503C31.7779 10.9929 34.3964 2.49172 31.6329 0.736939C30.0164 -0.369821 27.6972 0.246115 25.8412 0.605412C24.6186 0.88451 23.522 1.16681 22.3247 1.41704C21.9307 1.50044 21.9371 2.06826 22.3309 2.14525C24.4107 2.55588 25.9042 3.27447 26.9283 4.88168C28.8725 7.62454 27.6562 14.0629 26.2067 17.5084C24.7289 21.1847 21.9181 22.2112 18.8648 22.4647C17.2293 22.5609 15.6507 22.3268 14.2957 21.8809C13.8955 21.7493 13.6308 22.2882 13.9712 22.5353C16.659 24.4922 21.5526 25.1177 24.7383 24.3639" fill="black" fill-opacity="0.5"/>
<path d="M25.3465 8.26291C24.458 5.3404 23.0557 3.83264 17.4783 2.42432C12.2192 1.093 3.86888 -1.56964 2.14209 1.24378C1.05497 2.88948 1.65998 5.25058 2.0129 7.1401C2.28704 8.38476 2.56434 9.50117 2.81012 10.7202C2.89205 11.1212 3.44978 11.1148 3.52541 10.7138C3.92874 8.59654 4.63458 7.07591 6.21327 6.03332C8.90741 4.05399 15.2316 5.29228 18.6159 6.76794C22.227 8.27251 23.2353 11.1341 23.4843 14.2426C23.5788 15.9075 23.3488 17.5148 22.9108 18.8942C22.7815 19.3016 23.311 19.5711 23.5536 19.2246C25.4757 16.4882 26.0902 11.5062 25.3497 8.26291" fill="black" fill-opacity="0.5"/>
<path d="M9.53431 7.64368C6.6637 8.54838 5.1827 9.97596 3.79938 15.6541C2.49484 21.0115 -0.123703 29.5127 2.63979 31.2674C4.25628 32.3743 6.57547 31.7583 8.43147 31.399C9.65405 31.1199 10.7506 30.8376 11.9481 30.5874C12.3419 30.5039 12.3356 29.9361 11.9417 29.8591C9.86205 29.4485 8.36843 28.7299 7.34433 27.1227C5.40012 24.3799 6.61643 17.9414 8.0659 14.496C9.54378 10.8197 12.3545 9.79305 15.4079 9.53967C17.0433 9.44342 18.622 9.67759 19.9769 10.1235C20.3771 10.255 20.6418 9.71605 20.3015 9.46908C17.6137 7.51216 12.7201 6.88663 9.53431 7.64048" fill="black" fill-opacity="0.5"/>
</g>
</g>
<defs>
<clipPath id="clip0_9_141">
<rect width="143" height="32" fill="white" transform="translate(0 0.00219727)"/>
</clipPath>
</defs>
</svg>
