<svg width="160" height="25" viewBox="0 0 160 25" fill="none" xmlns="http://www.w3.org/2000/svg">
<g clip-path="url(#clip0_26_330)">
<path d="M78.3046 16.0278C78.5307 15.8039 78.6687 15.4923 78.6687 15.1504C78.6687 13.4515 78.3243 11.9721 77.634 10.7089C76.9421 9.44725 75.9863 8.47605 74.7665 7.79984C73.5466 7.12212 72.1417 6.78326 70.5532 6.78326C68.9647 6.78326 67.4687 7.14482 66.2018 7.86792C64.9365 8.59102 63.9457 9.6076 63.2326 10.9161C62.518 12.2232 62.1615 13.7511 62.1615 15.4953V15.9083C62.1615 17.6298 62.518 19.1456 63.2326 20.4526C63.9457 21.7612 64.9471 22.7778 66.2367 23.5009C67.5264 24.224 69.0223 24.5855 70.7261 24.5855C72.2464 24.5855 73.495 24.345 74.4736 23.8624C75.4522 23.3799 76.2457 22.7838 76.8557 22.0713C77.4656 21.3603 77.9435 20.6493 78.2894 19.9368L75.9408 18.8007C75.5266 19.7189 74.9273 20.5116 74.1459 21.1773C73.3631 21.8429 72.2464 22.1757 70.7959 22.1757C69.1376 22.1757 67.757 21.6644 66.6509 20.6433C65.5464 19.6221 64.9592 18.2047 64.8894 16.3909H77.4261C77.769 16.3909 78.08 16.2517 78.3046 16.0278ZM64.9243 14.152C65.155 12.5908 65.7649 11.3745 66.7556 10.5016C67.7448 9.63029 69.0117 9.1931 70.5532 9.1931C72.0947 9.1931 73.3221 9.63029 74.3007 10.5016C75.2793 11.3745 75.8149 12.5908 75.9059 14.152H64.9243Z" fill="#252525"/>
<path d="M79.9811 0V24.1029H82.7091V0H79.9811Z" fill="#252525"/>
<path d="M84.9894 7.26582V24.1029H87.7174V7.26582H84.9894ZM87.8555 1.06802C87.464 0.677721 86.9679 0.482574 86.3701 0.482574C85.7723 0.482574 85.2701 0.677721 84.8681 1.06802C84.4645 1.45831 84.2642 1.96206 84.2642 2.5823C84.2642 3.20253 84.4645 3.673 84.8681 4.0633C85.2701 4.45359 85.7708 4.64874 86.3701 4.64874C86.9694 4.64874 87.464 4.45359 87.8555 4.0633C88.2469 3.673 88.4426 3.17984 88.4426 2.5823C88.4426 1.98475 88.2469 1.45831 87.8555 1.06802Z" fill="#252525"/>
<path d="M105.347 10.8814C104.621 9.57281 103.609 8.56228 102.307 7.85128C101.007 7.14028 99.5046 6.78326 97.8008 6.78326C96.0969 6.78326 94.5949 7.14028 93.2946 7.85128C91.9929 8.56228 90.9809 9.57281 90.2557 10.8814C89.5305 12.1899 89.1678 13.7163 89.1678 15.4605V15.9083C89.1678 17.6767 89.5305 19.2091 90.2557 20.5056C90.9809 21.802 91.9929 22.8065 93.2946 23.5175C94.5949 24.2285 96.0969 24.5855 97.8008 24.5855C99.5046 24.5855 101.007 24.2285 102.307 23.5175C103.609 22.8065 104.621 21.802 105.347 20.5056C106.071 19.2091 106.434 17.6767 106.434 15.9083V15.4605C106.434 13.7163 106.071 12.1899 105.347 10.8814ZM103.706 15.8402C103.706 17.7675 103.172 19.2999 102.101 20.436C101.029 21.5721 99.5971 22.1409 97.8008 22.1409C96.0044 22.1409 94.601 21.5721 93.5192 20.436C92.4359 19.2999 91.8958 17.7675 91.8958 15.8402V15.5301C91.8958 13.6013 92.4359 12.0689 93.5192 10.9328C94.601 9.7967 96.0271 9.2279 97.8008 9.2279C99.5744 9.2279 101.029 9.7967 102.101 10.9328C103.172 12.0689 103.706 13.6013 103.706 15.5301V15.8402Z" fill="#252525"/>
<path d="M122.631 10.0887C122.032 9.05544 121.232 8.27637 120.231 7.7469C119.228 7.22045 118.095 6.95572 116.83 6.95572C115.101 6.95572 113.795 7.28248 112.909 7.93751C112.102 8.53202 111.51 9.19008 111.132 9.90864C111.063 10.0433 110.92 10.1235 110.77 10.1235C110.541 10.1235 110.354 9.9389 110.354 9.71047V7.45493H107.696V24.103H110.612V15.633C110.612 13.5438 111.125 11.9721 112.149 10.9161C113.173 9.86024 114.504 9.33077 116.138 9.33077C117.565 9.33077 118.699 9.71047 119.539 10.4684C120.38 11.2248 120.8 12.4425 120.8 14.1172V24.103H123.528V13.9114C123.528 12.3956 123.229 11.1219 122.631 10.0887Z" fill="#252525"/>
<path d="M140.915 16.0278C141.14 15.8039 141.279 15.4923 141.279 15.1504C141.279 13.4515 140.934 11.9721 140.243 10.7089C139.553 9.44725 138.597 8.47605 137.377 7.79984C136.156 7.12212 134.752 6.78326 133.164 6.78326C131.575 6.78326 130.078 7.14482 128.813 7.86792C127.546 8.59102 126.555 9.6076 125.842 10.9161C125.129 12.2232 124.772 13.7511 124.772 15.4953V15.9083C124.772 17.6298 125.129 19.1456 125.842 20.4526C126.555 21.7612 127.556 22.7778 128.846 23.5009C130.136 24.224 131.632 24.5855 133.337 24.5855C134.856 24.5855 136.104 24.345 137.083 23.8624C138.061 23.3799 138.855 22.7838 139.466 22.0713C140.076 21.3603 140.554 20.6493 140.899 19.9368L138.551 18.8007C138.136 19.7189 137.538 20.5116 136.755 21.1773C135.972 21.8429 134.856 22.1757 133.405 22.1757C131.747 22.1757 130.366 21.6644 129.262 20.6433C128.156 19.6221 127.568 18.2047 127.5 16.3909H140.035C140.378 16.3909 140.691 16.2517 140.915 16.0278ZM127.534 14.152C127.764 12.5908 128.374 11.3745 129.365 10.5016C130.354 9.63029 131.621 9.1931 133.164 9.1931C134.707 9.1931 135.931 9.63029 136.91 10.5016C137.888 11.3745 138.424 12.5908 138.517 14.152H127.534Z" fill="#252525"/>
<path d="M152.258 15.5633L158.855 7.26581H155.54L150.911 13.2821C150.671 13.5922 150.302 13.7737 149.911 13.7737C149.521 13.7737 149.152 13.5937 148.914 13.2851L144.25 7.26581H140.97L147.532 15.5633L140.762 24.1029H144.112L148.914 17.8794C149.034 17.7251 149.186 17.6025 149.355 17.5193C149.527 17.4346 149.717 17.3892 149.912 17.3892C150.304 17.3892 150.672 17.5708 150.912 17.8794L155.714 24.1029H159.029L152.259 15.5633H152.258Z" fill="#252525"/>
<path d="M64.8136 0.0166321L56.6344 24.1801H50.5898L42.1693 0.0166321H45.181L52.3968 20.8732C52.5743 21.3875 53.0598 21.7309 53.6045 21.7309C54.1537 21.7309 54.6423 21.3799 54.8168 20.8611L61.8035 0.0166321H64.8136Z" fill="#252525"/>
<path d="M26.4389 3.09664L26.3448 2.92721C26.3402 2.91965 26.3357 2.91057 26.3311 2.90301C25.3313 1.17996 23.5091 0.0983351 21.5216 0.0423627C21.4563 0.0423627 21.3926 0.0393372 21.3274 0.0393372H5.80331C5.73807 0.0393372 5.67435 0.0408499 5.60911 0.0423627C3.62005 0.0983351 1.79788 1.17996 0.798038 2.90301C0.793487 2.91057 0.788935 2.91965 0.784384 2.92721C0.719144 3.03916 0.658455 3.15261 0.602319 3.26758C-0.200285 4.87263 -0.200285 6.76057 0.602319 8.36561C0.658455 8.48058 0.719144 8.59404 0.784384 8.70599L2.52917 11.7209L8.56008 22.1363C9.55992 23.8594 11.3821 24.941 13.3711 24.997L13.5653 25C13.6306 25 13.6943 25 13.7595 24.997C15.7471 24.941 17.5693 23.8594 18.5691 22.1363L24.6 11.7209L26.3448 8.70599C26.3767 8.65001 26.4085 8.59404 26.4389 8.53656C27.3583 6.83923 27.3583 4.79397 26.4389 3.09664ZM13.5259 18.7402C9.08806 18.7402 5.49076 15.1534 5.49076 10.7286C5.49076 6.30371 9.08806 2.71694 13.5259 2.71694C17.9637 2.71694 21.561 6.30371 21.561 10.7286C21.561 15.1534 17.9637 18.7402 13.5259 18.7402Z" fill="#252525"/>
</g>
<defs>
<clipPath id="clip0_26_330">
<rect width="159.028" height="25" fill="white"/>
</clipPath>
</defs>
</svg>
