<svg width="132" height="32" viewBox="0 0 132 32" fill="none" xmlns="http://www.w3.org/2000/svg">
<g clip-path="url(#clip0_11_162)">
<path d="M46.4654 7.91858L52.1786 22.463L49.2538 30.274H53.426L61.8426 7.91858H57.6704L54.2289 17.0603L50.6382 7.91858H46.4659H46.4654Z" fill="black" fill-opacity="0.5"/>
<path d="M16.7739 7.91858V24.0858H20.9674V7.91858H16.7739Z" fill="black" fill-opacity="0.5"/>
<path d="M0 7.91858V11.821H8.2153L0 21.9819V24.0858H14.9008V20.1834H6.70844L14.9008 10.0203V7.91858H0Z" fill="black" fill-opacity="0.5"/>
<path d="M31.6423 7.67773C31.1195 7.67829 30.5934 7.71063 30.221 7.7753C29.2682 7.93976 28.0577 8.38798 27.3303 8.84568L27.1178 8.97948V7.91857H22.9243V32.0022H27.1178V23.0205L27.3555 23.1676C28.1187 23.6409 29.1682 24.0395 30.1651 24.2347C30.9546 24.3891 32.4363 24.374 33.2683 24.2034C36.1377 23.6147 38.467 21.6412 39.4942 18.9285C40.2825 16.8468 40.1808 14.4758 39.2163 12.4354C38.9144 11.7965 38.7237 11.4882 38.2686 10.9017C36.9814 9.24373 35.1419 8.14157 33.0452 7.77251C32.6856 7.70895 32.1656 7.67773 31.6429 7.67829L31.6423 7.67773ZM31.5881 11.5607C32.9764 11.5774 34.24 12.2408 34.9663 13.3664C35.4405 14.1011 35.668 14.8359 35.7133 15.7792C35.8028 17.6351 34.9199 19.2524 33.4159 19.9894C33.1341 20.1271 32.722 20.277 32.4961 20.3233C31.9168 20.4415 30.9406 20.4276 30.4167 20.2932C29.7027 20.1103 29.11 19.7747 28.599 19.2646C28.3524 19.0188 28.0566 18.6547 27.9409 18.4552C27.4796 17.6607 27.2638 16.582 27.3504 15.5044C27.403 14.8476 27.5243 14.4133 27.829 13.7862C28.4195 12.572 29.583 11.7641 30.9876 11.5936C31.19 11.569 31.3907 11.5584 31.5886 11.5607H31.5881Z" fill="black" fill-opacity="0.5"/>
<path d="M41.0961 0.00219727V24.0858H45.2895V0.00219727H41.0961Z" fill="black" fill-opacity="0.5"/>
<path d="M18.8706 5.23313C20.2352 5.23313 21.3414 4.12566 21.3414 2.75954C21.3414 1.39341 20.2352 0.28595 18.8706 0.28595C17.5061 0.28595 16.3998 1.39341 16.3998 2.75954C16.3998 4.12566 17.5061 5.23313 18.8706 5.23313Z" fill="black" fill-opacity="0.5"/>
<path d="M77.6615 7.01489V23.7318H80.1943V7.01489H77.6615Z" fill="black" fill-opacity="0.5"/>
<path d="M111.319 6.6854C110.531 6.72052 109.767 6.83035 109.275 7.00373C107.57 7.60526 106.137 8.71913 105.165 10.1976C102.811 13.7761 103.311 19.0729 106.263 21.8124C107.368 22.8376 108.117 23.2646 109.746 23.797C110.433 24.0212 110.871 24.0747 112.09 24.0825C112.915 24.0881 113.756 24.0395 113.96 23.9754C114.163 23.9113 114.685 23.748 115.119 23.6131C116.184 23.2819 117.204 22.6609 118.193 21.7393L119.016 20.9733L118.435 20.4582C117.411 19.5495 117.364 19.5356 116.902 19.9955C115.497 21.3931 113.149 22.1513 111.224 21.8308C109.458 21.5364 107.837 20.4125 107.056 18.9413C106.646 18.1703 106.309 17.1183 106.309 16.6138V16.2748H119.613L119.534 14.9664C119.434 13.3195 119.114 12.0479 118.473 10.7428C118.075 9.93167 117.77 9.52192 116.995 8.7576C115.879 7.65711 114.897 7.10965 113.511 6.8153C112.921 6.68986 112.107 6.65028 111.319 6.6854ZM111.705 8.83118C112.494 8.81892 113.271 8.9438 113.819 9.20359C114.688 9.60944 115.662 10.5761 116.157 11.5244C116.525 12.2285 116.923 13.5615 116.923 14.0878V14.3503H106.217L106.385 13.5386C106.769 11.6694 107.965 10.046 109.519 9.28387C110.115 8.99341 110.916 8.84345 111.705 8.83118H111.705Z" fill="black" fill-opacity="0.5"/>
<path d="M132 6.62073L131.219 6.70045C130.108 6.81362 129.02 7.17822 128.192 7.71453C127.33 8.27202 126.147 9.50965 125.629 10.3961C125.501 10.6152 125.373 10.8337 125.246 11.0528V7.01432H122.713V23.7313H125.246V19.7731C125.246 15.1855 125.333 14.4758 126.086 12.9533C127.134 10.8337 129.282 9.42937 131.488 9.42156L132.001 9.41989V6.62073H132Z" fill="black" fill-opacity="0.5"/>
<path d="M84.4761 0.0395508V23.7318H87.009V20.5558C87.0342 20.5558 87.5279 21.2694 88.0495 21.7878C89.1488 22.8789 89.8242 23.3048 91.1684 23.7552C91.9467 24.0161 92.366 24.0802 93.3188 24.0858C96.1642 24.102 99.0812 22.3548 100.339 19.8807C101.041 18.4986 101.276 17.5208 101.336 15.7307C101.384 14.2695 101.356 13.8982 101.124 12.9644C100.629 10.972 99.7219 9.51802 98.2263 8.32387C95.9775 6.52708 92.8978 6.13126 90.3258 7.30868C89.3752 7.74352 88.2419 8.64332 87.6118 9.46338C87.3797 9.76554 87.0582 10.3336 87.0084 10.3364V0.0395508H84.4756H84.4761ZM92.7049 8.94659C93.401 8.91593 94.0926 8.9884 94.64 9.17014C96.5729 9.81126 97.916 11.2423 98.5427 13.3285C98.8385 14.3119 98.8408 16.4287 98.5472 17.397C97.8326 19.7563 96.2637 21.2828 94.1385 21.6842C92.1698 22.0566 90.3314 21.5052 88.8687 20.1048C85.5648 16.9416 86.5941 11.0422 90.7468 9.34074C91.3093 9.11049 92.0087 8.97669 92.7049 8.94603V8.94659Z" fill="black" fill-opacity="0.5"/>
<path d="M72.957 0.00333637C71.3886 -0.0184058 70.4023 0.25365 69.5194 0.951629C68.2989 1.91665 67.7101 3.05504 67.7101 5.33072V7.01435H65.4182V9.17909H67.7101V23.7313H70.2429V9.17964H75.5502V7.0149H70.2429V5.75665C70.2429 3.8294 70.7003 2.86494 71.8376 2.39107C72.409 2.15302 73.8292 2.14968 74.7059 2.38438C75.071 2.48194 75.5502 2.64863 75.5502 2.64863V0.366263L74.8871 0.188423C74.5555 0.0964374 73.6872 0.0133712 72.957 0.00333637Z" fill="black" fill-opacity="0.5"/>
<path d="M78.9257 3.69451C79.8916 3.69451 80.6746 2.91377 80.6746 1.95068C80.6746 0.987589 79.8916 0.206848 78.9257 0.206848C77.9598 0.206848 77.1767 0.987589 77.1767 1.95068C77.1767 2.91377 77.9598 3.69451 78.9257 3.69451Z" fill="black" fill-opacity="0.5"/>
</g>
<defs>
<clipPath id="clip0_11_162">
<rect width="132" height="32" fill="white" transform="translate(0 0.00219727)"/>
</clipPath>
</defs>
</svg>
